<svg width="228" height="131" viewBox="0 0 228 131" fill="none" xmlns="http://www.w3.org/2000/svg">
<path d="M91.3863 130.258C88.7501 130.258 86.4362 129.674 84.4444 128.506C82.4526 127.308 80.9002 125.6 79.7871 123.38C78.6741 121.16 78.1176 118.488 78.1176 115.363C78.1176 112.238 78.6741 109.595 79.7871 107.433C80.9002 105.243 82.4526 103.578 84.4444 102.439C86.4362 101.3 88.7501 100.73 91.3863 100.73C94.0225 100.73 96.3365 101.3 98.3283 102.439C100.32 103.578 101.872 105.243 102.985 107.433C104.099 109.595 104.655 112.238 104.655 115.363C104.655 118.488 104.099 121.16 102.985 123.38C101.872 125.6 100.32 127.308 98.3283 128.506C96.3365 129.674 94.0225 130.258 91.3863 130.258ZM91.3863 123.774C92.5287 123.774 93.5099 123.438 94.33 122.767C95.1795 122.066 95.8239 121.087 96.2632 119.831C96.7026 118.576 96.9223 117.086 96.9223 115.363C96.9223 113.64 96.7026 112.179 96.2632 110.982C95.8239 109.755 95.1795 108.821 94.33 108.178C93.5099 107.536 92.5287 107.214 91.3863 107.214C90.244 107.214 89.2481 107.536 88.3986 108.178C87.5785 108.821 86.9487 109.755 86.5094 110.982C86.07 112.179 85.8503 113.64 85.8503 115.363C85.8503 117.086 86.07 118.576 86.5094 119.831C86.9487 121.087 87.5785 122.066 88.3986 122.767C89.2481 123.438 90.244 123.774 91.3863 123.774Z" fill="#3E94C1"/>
<path d="M0 130.071V100.544H10.4655C12.4988 100.544 14.3826 100.917 16.0571 101.336C17.7315 101.755 19.0622 102.487 20.0489 103.534C21.0357 104.58 21.529 106.06 21.529 107.974C21.529 109.23 21.2001 110.486 20.5423 111.742C19.8844 112.968 18.9874 113.805 17.8512 114.253V114.433C19.2565 114.821 20.4376 115.569 21.3945 116.675C22.3812 117.782 22.7998 119.344 22.7998 121.288C22.7998 123.291 22.3513 124.898 21.3048 126.184C20.2582 127.44 18.8678 128.367 17.1335 128.965C15.3992 129.563 13.493 130.071 11.3999 130.071H0ZM7.71457 123.941H10.8542C12.3792 123.941 13.5005 123.672 14.2181 123.134C14.9657 122.596 15.3394 121.789 15.3394 120.712C15.3394 119.636 14.9657 118.873 14.2181 118.425C13.5005 117.976 12.3792 117.752 10.8542 117.752H7.71457V123.941ZM7.71457 112.1H10.316C11.5719 112.1 12.4988 111.831 13.0968 111.293C13.6949 110.755 13.9939 110.037 13.9939 109.14C13.9939 108.243 13.6949 107.6 13.0968 107.212C12.4988 106.823 11.5719 106.628 10.316 106.628H7.71457V112.1Z" fill="#3E94C1"/>
<path d="M27.285 130.071L27.2938 100.544H45.9734V107.167H34.9996V111.742H44.5083V118.2H34.9996V123.403H46.3472V130.071H27.285Z" fill="#3E94C1"/>
<path d="M58.1597 130.071V107.167H50.4587V100.544H73.6024V107.167H65.8878V130.071H58.1597Z" fill="#3E94C1"/>
<path d="M118.111 130.071V100.544H126.477C128.37 100.544 130.527 100.68 132.193 101.255C133.859 101.8 135.146 102.709 136.054 103.981C136.993 105.223 137.463 106.918 137.463 109.069C137.463 111.128 137.008 112.824 136.1 114.157C135.191 115.489 133.919 116.488 132.284 117.155C130.649 117.821 128.741 118.154 126.56 118.154H121.472V130.071H118.111ZM121.472 115.383H126.06C128.786 115.383 130.8 114.883 132.102 113.884C133.435 112.854 134.101 111.249 134.101 109.069C134.101 106.828 133.405 105.283 132.011 104.435C130.649 103.557 128.604 103.118 125.879 103.118H121.472V115.383Z" fill="#3E94C1"/>
<path d="M142.032 130.071V100.544H151.235C153.317 100.544 154.968 101.043 156.513 101.588C158.057 102.103 159.269 102.966 160.147 104.178C161.025 105.389 161.464 107.009 161.464 109.038C161.464 110.977 161.025 112.597 160.147 113.899C159.269 115.171 158.057 116.125 156.513 116.761C154.968 117.397 153.197 117.715 151.198 117.715H145.429V130.071H142.032ZM158.427 130.071L150.517 116.806L153.242 115.171L162.589 130.071H158.427ZM145.429 114.989H150.653C153.045 114.989 154.878 114.505 156.149 113.536C157.452 112.536 158.103 111.037 158.103 109.038C158.103 107.009 157.452 105.586 156.149 104.768C154.878 103.92 153.045 103.496 150.653 103.496H145.429V114.989Z" fill="#3E94C1"/>
<path d="M167.077 130.071V100.544H170.438V130.071H167.077Z" fill="#3E94C1"/>
<path d="M174.923 130.071V100.544H179.193L184.917 117.124C185.311 118.154 185.675 119.199 186.008 120.259C186.371 121.319 186.734 122.379 187.098 123.439H187.28C187.673 122.379 188.037 121.319 188.37 120.259C188.703 119.199 189.051 118.154 189.415 117.124L195.282 100.544H199.218V130.071H196.229V113.354L196.228 110.635V107.645V105.776V105.216L194.094 111.491L188.279 127.527H185.917L180.057 111.491L177.914 105.216V105.589V107.645V110.635V113.439V130.071H174.923Z" fill="#3E94C1"/>
<path d="M203.704 130.071L214.114 100.544H217.521L227.742 130.071H224.263L218.931 113.717C218.386 112.021 217.856 110.356 217.341 108.72C216.856 107.055 216.357 105.344 215.842 103.587H215.66C215.206 105.344 214.721 107.055 214.207 108.72C213.722 110.356 213.192 112.021 212.617 113.717L207.254 130.071H203.704ZM208.937 121.213V118.533H222.611V121.213H208.937Z" fill="#3E94C1"/>
<path fill-rule="evenodd" clip-rule="evenodd" d="M154.985 0.0118171C154.745 -0.0165088 154.484 0.0108306 154.246 0.0439385C150.492 0.957686 144.633 6.1116 141.34 9.0081C141.201 9.12971 141.068 9.24734 140.939 9.36051C140.865 9.42499 140.748 9.52537 140.605 9.64826C139.966 10.1972 138.804 11.1955 138.653 11.4498C138.646 11.4612 138.641 11.4735 138.636 11.4858C138.633 11.4925 138.63 11.4992 138.627 11.5058C139.028 11.2026 139.626 10.7049 140.341 10.1095C143.062 7.84387 147.481 4.1635 149.25 4.4C149.457 4.42777 149.691 4.55359 149.789 4.74802C149.797 4.76397 149.802 4.78112 149.807 4.79829C149.81 4.80737 149.813 4.81646 149.816 4.82539C150.15 5.52655 149.777 6.5563 149.507 7.29868C149.484 7.36294 149.462 7.42505 149.44 7.48461C148.991 8.74786 148.34 9.96329 147.697 11.1368C146.477 13.3619 145.135 15.4815 143.741 17.5993C139.644 23.8185 135.135 29.7395 130.532 35.5884C126.275 41.0449 121.875 46.3827 117.33 51.6018C114.287 55.1308 111.186 58.6089 108.028 62.0361C107.659 62.439 107.29 62.8447 106.921 63.2509C105.788 64.4966 104.652 65.7467 103.469 66.9349H124.318H135.937L135.938 58.5504C135.938 58.0906 135.933 57.6292 135.929 57.1674C135.92 56.1919 135.911 55.2143 135.942 54.2444L152.964 54.2417L159.67 54.2421C160.081 54.2421 160.494 54.2457 160.907 54.2493C161.92 54.2582 162.935 54.2671 163.942 54.2229C168.005 54.0444 172.086 53.2762 175.811 51.6105C177.962 50.6491 180.017 49.352 181.685 47.6767C181.78 47.5808 181.874 47.4839 181.966 47.3858C182.059 47.2875 182.15 47.1881 182.24 47.0876C182.33 46.9871 182.419 46.8855 182.507 46.7829C182.594 46.6803 182.681 46.5765 182.766 46.4715C182.851 46.3667 182.935 46.2609 183.017 46.154C183.099 46.0472 183.18 45.9392 183.26 45.8302C183.34 45.7212 183.418 45.6113 183.495 45.5005C183.572 45.3896 183.648 45.2779 183.722 45.1652C183.796 45.0523 183.869 44.9385 183.94 44.8241C184.011 44.7096 184.081 44.5942 184.15 44.4779C184.219 44.3616 184.286 44.2443 184.351 44.1262C184.416 44.0084 184.481 43.8896 184.543 43.7699C184.606 43.6505 184.667 43.5302 184.726 43.4091C184.786 43.288 184.844 43.1662 184.901 43.0437C184.958 42.9212 185.013 42.798 185.066 42.674C185.12 42.5501 185.172 42.4256 185.222 42.3004C185.273 42.1752 185.321 42.0494 185.369 41.923C185.416 41.7966 185.462 41.6696 185.506 41.5421C185.55 41.4146 185.593 41.2865 185.634 41.1579C185.675 41.0293 185.714 40.9002 185.752 40.7706C185.79 40.6411 185.826 40.511 185.86 40.3806C185.895 40.2501 185.927 40.1192 185.959 39.9879C185.99 39.8566 186.02 39.7249 186.048 39.5929C186.076 39.4609 186.102 39.3285 186.127 39.1958C186.152 39.0631 186.175 38.9302 186.196 38.7969C186.217 38.6636 186.237 38.5301 186.255 38.3964C186.273 38.2626 186.29 38.1287 186.305 37.9945C186.319 37.8604 186.332 37.726 186.343 37.5915C186.355 37.4571 186.365 37.3225 186.373 37.1877C186.381 37.053 186.387 36.9182 186.392 36.7833C186.397 36.6484 186.4 36.5135 186.401 36.3786C186.402 36.2436 186.402 36.1086 186.4 35.9737C186.376 31.4078 184.789 26.9647 181.475 23.7511C177.364 19.7653 171.556 17.8896 165.946 17.4027C163.891 17.2244 161.828 17.2301 159.766 17.2357C159.386 17.2368 159.007 17.2378 158.628 17.2377L148.98 17.2506C149.31 17.0139 149.843 16.0593 150.198 15.4239C150.285 15.2685 150.361 15.1322 150.421 15.0301C152.282 11.8585 155.491 6.30471 156.087 2.72775C156.2 2.04798 156.289 1.08628 155.863 0.493573C155.657 0.206194 155.33 0.0526162 154.985 0.0118171ZM131.653 41.5936L140.228 30.2855H163.033C163.033 30.2855 170.854 29.9086 170.854 35.9396C170.854 41.9705 163.033 41.5936 163.033 41.5936H131.653Z" fill="url(#paint0_linear_41_37)"/>
<path fill-rule="evenodd" clip-rule="evenodd" d="M69.8902 17.3363L94.1914 17.3372L101.045 17.3224C101.214 17.3224 101.384 17.3222 101.553 17.322C103.019 17.3202 104.488 17.3185 105.949 17.4235C106.052 17.4309 106.152 17.448 106.253 17.465C106.349 17.4813 106.444 17.4976 106.542 17.5054C106.7 17.5179 106.858 17.5252 107.017 17.5324C107.246 17.5429 107.475 17.5533 107.702 17.5798C109.621 17.8034 112.416 18.4385 114.189 19.217C117.45 20.6483 120.266 22.9449 121.561 26.361C122.12 27.8342 122.337 29.3726 122.342 30.9415C122.344 31.7033 122.332 32.451 122.216 33.206C121.832 35.6913 120.546 38.2467 118.555 39.8245C118.534 39.8408 118.513 39.8572 118.492 39.8738C118.114 40.1738 117.742 40.4151 117.329 40.6513C117.224 40.7113 116.999 40.8397 116.773 40.9632C116.481 41.1224 116.293 41.2167 115.777 41.5074C115.796 41.5187 115.809 41.5266 115.819 41.5325C115.847 41.5497 115.848 41.5505 115.898 41.5673C117.912 42.2533 119.153 42.7099 120.627 44.2322L119.308 45.7399L118.083 47.1534C118.083 47.1534 114.028 52.0122 112.052 54.221C101.276 66.4714 96.315 71.4086 83.5736 82.2146C81.4785 83.9232 79.3611 85.6145 77.086 87.0796C76.3042 87.5834 75.5312 88.0771 74.6847 88.4676C73.9603 88.8019 72.7385 89.3167 71.9536 88.9933C71.6069 88.8503 71.3301 88.4804 71.2077 88.1365C70.6261 86.5019 71.9126 83.7519 72.6501 82.2534C73.1444 81.2491 73.7286 80.2964 74.3186 79.3464C74.6974 78.7286 75.0888 78.1189 75.4928 77.5172C75.8968 76.9156 76.3131 76.3226 76.7417 75.7383C77.1703 75.154 77.6108 74.5788 78.0632 74.0128C78.5156 73.4465 78.9795 72.8899 79.4549 72.343C79.5045 72.2862 79.5702 72.1995 79.6447 72.1012C79.8501 71.8304 80.1222 71.4716 80.3062 71.4086C80.2629 71.5538 79.5788 72.4782 79.1899 73.0039C79.0858 73.1446 79.0029 73.2566 78.959 73.3177C77.5175 75.319 75.1648 78.7769 74.6708 81.1409C74.6705 81.1463 74.6701 81.1518 74.6697 81.1573C74.6688 81.1701 74.6679 81.1829 74.6673 81.1957C74.6517 81.5469 74.6467 81.9292 74.91 82.2005C75.0689 82.364 75.2937 82.4206 75.516 82.4165C79.1192 82.3495 91.003 70.4553 94.335 67.1203L94.4285 67.0268C91.8762 66.977 89.3173 66.9917 86.7602 67.0064C85.5404 67.0134 84.3211 67.0204 83.1031 67.0204L59.4651 67.0172C59.4141 66.0712 59.4281 65.1071 59.4419 64.1486C59.4483 63.7077 59.4546 63.268 59.4547 62.8318L59.4547 54.7163L59.4541 43.1218C59.4539 42.4829 59.4501 41.8431 59.4463 41.2031C59.4375 39.733 59.4288 38.2614 59.4641 36.7945C60.3269 36.7512 61.2012 36.7623 62.0723 36.7734C62.4644 36.7784 62.8559 36.7833 63.2453 36.7833L70.5638 36.7833L92.8534 36.7828L100.143 36.7839C100.516 36.7844 100.894 36.7924 101.276 36.8005C102.212 36.8204 103.162 36.8406 104.07 36.7494C104.949 36.6611 106.256 36.3879 106.928 35.7692C107.508 35.2353 107.745 34.3557 107.761 33.5944C107.778 32.8013 107.607 31.9594 107.027 31.3777C106.332 30.6816 105.114 30.4297 104.174 30.3305C103.127 30.2202 101.97 30.2407 100.856 30.2605C100.435 30.268 100.02 30.2753 99.6201 30.2754L90.5575 30.2953L59.4827 30.275C59.7952 29.8108 60.1618 29.3707 60.5254 28.9343C60.6695 28.7613 60.8131 28.5889 60.9526 28.4158L63.6481 25.071L67.6951 20.0379C67.9033 19.7795 68.11 19.5193 68.3167 19.2589C68.832 18.6101 69.348 17.9603 69.8902 17.3363ZM75.0181 47.4361V54.221H104.042C104.042 54.221 108 54.4094 108 50.8285C108 47.2476 104.042 47.4361 104.042 47.4361H75.0181Z" fill="url(#paint1_linear_41_37)"/>
<defs>
<linearGradient id="paint0_linear_41_37" x1="144.935" y1="0" x2="144.935" y2="66.9349" gradientUnits="userSpaceOnUse">
<stop stop-color="#85C240"/>
<stop offset="1" stop-color="#73AC31"/>
</linearGradient>
<linearGradient id="paint1_linear_41_37" x1="90.8855" y1="17.3215" x2="90.8855" y2="89.0959" gradientUnits="userSpaceOnUse">
<stop stop-color="#317BA1"/>
<stop offset="1" stop-color="#3E94C1"/>
</linearGradient>
</defs>
</svg>
